<?xml version="1.0" encoding="UTF-8"?>
<svg version="1.1" xmlns="http://www.w3.org/2000/svg" width="50" height="50">
<path d="M0 0 C4.79040464 0.68434352 8.36710295 3.39988363 12.0625 6.4375 C14.39107407 9.93036111 14.65113362 11.32757596 14.0625 15.4375 C11.875 17.5546875 11.875 17.5546875 9.0625 19.3125 C8.134375 19.90804688 7.20625 20.50359375 6.25 21.1171875 C5.1671875 21.77074219 5.1671875 21.77074219 4.0625 22.4375 C4.495625 23.02917969 4.92875 23.62085937 5.375 24.23046875 C5.931875 25.02066406 6.48875 25.81085937 7.0625 26.625 C7.619375 27.40230469 8.17625 28.17960937 8.75 28.98046875 C10.0625 31.4375 10.0625 31.4375 10.0625 36.4375 C2.8025 36.4375 -4.4575 36.4375 -11.9375 36.4375 C-12.2675 35.1175 -12.5975 33.7975 -12.9375 32.4375 C-9.90224514 30.41399676 -8.74323798 30.11625982 -5.25 29.8125 C-4.44175781 29.73773438 -3.63351563 29.66296875 -2.80078125 29.5859375 C-1.87845703 29.51246094 -1.87845703 29.51246094 -0.9375 29.4375 C-1.370625 28.91800781 -1.80375 28.39851563 -2.25 27.86328125 C-2.806875 27.16589844 -3.36375 26.46851562 -3.9375 25.75 C-4.494375 25.06550781 -5.05125 24.38101562 -5.625 23.67578125 C-7.2390912 20.9231793 -7.52605167 19.57644224 -6.9375 16.4375 C-4.96875 14.19921875 -4.96875 14.19921875 -2.4375 12.125 C-1.6021875 11.42761719 -0.766875 10.73023438 0.09375 10.01171875 C0.7434375 9.49222656 1.393125 8.97273437 2.0625 8.4375 C-0.63933055 7.08658472 -3.05558206 7.09891942 -6.0625 6.875 C-7.70605469 6.74931641 -7.70605469 6.74931641 -9.3828125 6.62109375 C-10.22585938 6.56050781 -11.06890625 6.49992188 -11.9375 6.4375 C-11.9375 2.4375 -11.9375 2.4375 -10.9375 1.4375 C-7.29577753 0.88198301 -3.64222448 0.54245897 0 0 Z " fill="#000000" transform="translate(25.9375,2.5625)"/>
<path d="M0 0 C3 0.25 3 0.25 5 2.25 C5.25 5.75 5.25 5.75 5 9.25 C3 11.25 3 11.25 0 11.5 C-3 11.25 -3 11.25 -5 9.25 C-5.25 5.75 -5.25 5.75 -5 2.25 C-3 0.25 -3 0.25 0 0 Z " fill="#000000" transform="translate(45,2.75)"/>
<path d="M0 0 C0.33 0.66 0.66 1.32 1 2 C2.670625 1.9690625 2.670625 1.9690625 4.375 1.9375 C8 2 8 2 10 3 C9.625 4.9375 9.625 4.9375 9 7 C6.35541621 8.32229189 4.32238699 8.09677194 1.375 8.0625 C0.37210938 8.05347656 -0.63078125 8.04445313 -1.6640625 8.03515625 C-2.43492188 8.02355469 -3.20578125 8.01195312 -4 8 C-4.33 6.35 -4.66 4.7 -5 3 C-3.35 2.01 -1.7 1.02 0 0 Z " fill="#000000" transform="translate(40,18)"/>
<path d="M0 0 C1.41823316 0.08006155 2.83603027 0.17654137 4.25 0.3125 C2.27650195 4.77474435 -0.60878618 7.7442365 -4.75 10.3125 C-7.6875 10.1875 -7.6875 10.1875 -9.75 9.3125 C-8.85924352 3.29989379 -6.1288872 -0.00963662 0 0 Z " fill="#000000" transform="translate(23.75,39.6875)"/>
<path d="M0 0 C7.26 0 14.52 0 22 0 C22 0.66 22 1.32 22 2 C14.74 2 7.48 2 0 2 C0 1.34 0 0.68 0 0 Z " fill="#000000" transform="translate(0,12)"/>
<path d="M0 0 C6.93 0 13.86 0 21 0 C21 0.66 21 1.32 21 2 C14.07 2 7.14 2 0 2 C0 1.34 0 0.68 0 0 Z " fill="#000000" transform="translate(0,27)"/>
<path d="M0 0 C5.61 0 11.22 0 17 0 C17 0.66 17 1.32 17 2 C11.39 2 5.78 2 0 2 C0 1.34 0 0.68 0 0 Z " fill="#000000" transform="translate(0,22)"/>
<path d="M0 0 C5.61 0 11.22 0 17 0 C17 0.66 17 1.32 17 2 C11.39 2 5.78 2 0 2 C0 1.34 0 0.68 0 0 Z " fill="#000000" transform="translate(0,17)"/>
</svg>
